<?xml version="1.0" encoding="utf-8"?>
<!-- Generator: Adobe Illustrator 27.3.1, SVG Export Plug-In . SVG Version: 6.00 Build 0)  -->
<svg version="1.1" id="Layer_1" xmlns="http://www.w3.org/2000/svg" xmlns:xlink="http://www.w3.org/1999/xlink" x="0px" y="0px"
	 viewBox="0 0 250.1 125.9" style="enable-background:new 0 0 250.1 125.9;" xml:space="preserve">
<style type="text/css">
	.st0{fill:#FFFFFF;}
</style>
<path class="st0" d="M43.4,73c-1.8-2.3-2.5-5.1-3.9-7.5c-0.2-0.6-0.6-1.2-1.1-1.6v9l-0.9,0.5h-6.7c-6.3,0.1-12.6-0.1-18.9,0.2
	c-1,0.7-0.6,1.7-0.6,2.6c-0.1,3.4-1.1,4.5-4.4,4.4c-1.2,0-2.5,0.6-3.5-0.5c-0.1-6.9-0.1-13.7-0.1-20.6c0-1.1-0.2-1.8-1.3-1.9
	s-0.9-0.5-0.8-1c0.5-7-1.2-13.8-0.8-20.8c0.1-0.1,0.1-0.4,0-0.5c-0.8-1.6-0.6-2.4,1.5-2.2s0.4-0.6,0.4-0.9c0-4,0.6-8-0.2-11.8
	s-0.1-6.1-1-8.7c-0.6-1.5-0.8-3-0.7-4.6c0.2-1.5,0.4-3,0.4-4.5c0-0.7,0.5-0.7,1-0.7c4.3,0,8.7-0.5,12.9,0.2c7.3,0.8,14.7,1.2,22,1
	c0.4,0,0.7-0.1,1,0.5c1.1,2.2,2.6,4.4,3.2,6.8c0.5,2.2,1.4,4.3,2.6,6.2c2.9,4.9,5.6,10,8,15.2c0.4,0.9,0.8,1.7,0,2.6
	s0.1,0.9,0.3,1.2c1.8,3.8,3.8,7.5,5.4,11.4c1.6,3.9,2.7,6.2,4.1,9.3c0.3,0.7,0.7,1.5,1.4,1.4s2.2,1.3,2.7,2.5s1.4,2.7,2.1,4.3
	l3.2-6.4c-3.3-0.5-3.3-0.5-1.9-3.4l3.9-8c0.6-1-0.5-2.2,0.5-2.9s-0.1-2,1.4-1s0.3-0.5,0.3-0.9c0.1-1.6,0.1-3.2-0.1-4.8
	c-0.4-2.2,1-3,2.5-3.9c1.3-0.6,2.3-1.6,3-2.8c1.6-3.7,3.5-7.4,5.3-11.1l-1.8-0.2c1.4-2.7,2.6-5.3,4-8l-2.2-0.2l2.1-4.3
	c0.1-0.2,0.2-0.5,0.3-0.5c2.9,0.1,2.7-2.5,3.6-4.1c0.4-0.9,1.3-1.5,2.3-1.4h30.9c1.2,0,1.8,0.2,1.6,1.5c0,1,0,1.9,0,2.9
	c0,0.3,0.1,0.9-0.3,0.9c-2.4,0-1.2,1.8-1.3,2.8c-0.1,1-0.8,2.5,1.4,2.4c0.6-0.1,0.3,0.9,0.3,1.3c0.1,6.2,0.1,12.4,0.1,18.6
	c0.1,0.7,0,1.2,0.9,1.1c0.9-0.1,1.4-0.3,1.1,0.6c-0.3,0.9-0.6,1.6-1.4,1.5s-1.9,0.9-1.8,2.3c0.1,2,0,3.9-0.1,5.9
	c0,1.1,0.9,2.6-0.9,3.2c-0.1,0.3-0.1,0.6-0.1,0.9v9.8c0,0.9,0.1,1.4,1.1,1.3c0.8,0.1,1.6,0.2,2.4,0.3c3.6,0,3.6,0,3.6,3.6
	c0,20.2,0,40.4,0.1,60.6c0,1.3-0.2,1.8-1.7,1.8H97.9c-1.2,0-1.6-0.2-1.6-1.5c0.1-6.4,0.1-12.7,0.1-19c0.9-0.9,2.1-0.4,3.2-0.6
	s0.5-1.3,0.4-2c-0.1-0.1-0.1-0.3-0.1-0.5c-0.1-1.3-0.1-2.6-0.1-4V96c0-2.5,0-2.5-2.4-2.6h-0.6c-0.1-0.1-0.3-0.2-0.4-0.4V64
	c-0.8,0.3-0.9,1-1.1,1.4L82.4,92c-0.2,0.3-0.4,0.7-0.7,1c-0.3,0.3-0.8,0.5-1.2,0.5H66.9c-2.6,0-2.6,0-2.6,2.6v0.6
	c0,3.7,0,3.6,3.7,3.7h6.1c0.3,0.1,0.6,0.2,0.8,0.4l0,0c0.6,0.7,0.6,1.8-0.1,2.5H59.5c-0.9,0.1-1.8-0.4-2.1-1.3
	c-1.4-3.4-3.4-6.4-4.6-9.8c0.1-0.2,0.4-0.4,0.7-0.4h2.2l0.5,0.3c2,0.6,4.1,0.2,6.1,0.2c0.3,0,0.5-0.3,0.5-0.6c0.1-0.3,0.1-0.7,0.1-1
	c0.1-1.4-0.4-2-1.8-2h-5.7c-1.5,0-3.1,0.4-4.5-0.4c-1.6-2.4-2.5-5.1-3.9-7.5c0.1-0.2,0.3-0.3,0.5-0.4l0.8-0.2
	c2.2-0.2,4.5,0.4,6.7-0.3l0.6-0.6c0.3-1.2,0.3-2.4,0-3.6c-0.2-0.2-0.4-0.5-0.5-0.8c0-1.2-0.5-1.6-1.6-1.6h-7.9
	C44.9,73.4,44.1,73.3,43.4,73z"/>
<path class="st0" d="M156.5,111.6c-2.4-1.6-4.6-3.6-6.3-5.9c-6.7-8.1-10.3-17.5-11.9-27.7c-0.8-6-1.1-12-0.7-18
	c0-1.6-0.2-2.4-2.1-2.1c-1.2,0-2.4-0.1-3.6-0.3c-1.4,0-1.6-0.5-1.5-1.7c0.1-3.3,0.5-6.5,1-9.7c0.1-0.8,0.5-1,1-0.8s1.7-0.7,1.9-1.7
	c0.4-2.3,1-4.5,1.8-6.7c0.5-1.8,1.3-3.3,3.2-4c0.2,0,0.2-0.5,0.4-0.8h-2.5c1-2.5,2.2-4.8,3.7-7c1.2,1.5,0.2,3.3,0.8,5.2
	c0.7-1,1.3-2,1.8-3c2.2-3.6,4.8-6.9,7.7-10c0.3-0.3,0.7-1.3,1.3,0s1.3,0.1,2,0.2s1.6-0.3,2.1,0.6s1.1,0.2,1.7,0.2
	c6.9,0,13.8,0.2,20.8,0c2.7-0.1,5.5-0.3,8.3-0.3c0.8,0,1.7,0,2.5,0.2c5.1,0.1,10.2,0.2,15.2,0c1.3-1,0.4-2.4,0.7-3.6s0.5-2-0.7-2.6
	c-3.8-0.2-7.7,0-11.5-0.1c-1,0.1-2,0-3-0.1c-0.4-0.2-0.9-0.3-1.3-0.3h-24.7c-0.2-0.1-0.4-0.2-0.5-0.4c5-3.4,10.6-5.2,16.3-6.8
	c3.2-0.8,6.4-1.5,9.7-1.8c0.7-0.1,1.5-0.1,1.6-1.2s0.5-0.8,1.2-0.9c8.3-0.5,16.7-0.4,25,0.3c7.1,0.6,14,2,20.8,4
	c1,0.3,2.4,0.1,1.3,2s-0.1,2.5-0.1,3.7s1,0.7,1.5,0.7s2,0.3,1.9,1.9c0,6.3,0,12.5,0.1,18.8c0,1.8-1.9,2.3-2.3,3.7s-0.5,0-0.7-0.1
	c-5.5-1.9-11.3-2.3-17-3.3c-7.2-1.3-14.4-1.1-21.6-1c-3,0.1-5.9,0.7-8.7,1.8c-0.6,0.2-1.4,0.6-1.6-0.6c-0.2-1.2-0.6-0.4-0.8-0.2
	c-0.2,0.2-3.8,1.9-5.8,2.7c-2.4,1.1-4.4,2.6-6.1,4.6c-1.2,1.3-2.3,2.7-3.2,4.2c-0.5,0.9-0.6,2.1-2.1,1.9s-0.6,0.8-0.7,1.2
	c-1.1,2.9-1.8,5.9-2.3,9c-0.4,1.6,0.5,2.3,1.7,2.2s1.4,0.9,1.4,2c-0.7,7.8-0.3,15.5,3.1,22.8s9.2,10.5,16.4,12.2
	c8.9,1.9,17.6,1.2,26.4-1c1-0.3,1.1-0.7,1.1-1.6v-9.9c0.1-1.1-0.2-1.4-1.3-1.4c-2.6,0.1-2.6,0-2.6-2.6v-1.8c-0.2-1.1,0-2,1.5-2
	h-20.4c-1,0.1-2-0.7-2-1.7c0-0.4,0.1-0.9,0.3-1.3c0.4-0.5,0.6-1.1,0.5-1.7c0-3.4-0.1-6.8,0.1-10.2c0-1.6-0.7-2-2-1.9h-2.6
	c1.5,0,1.3-0.9,1.3-1.8c0-3.6,0.1-3.6,3.7-3.6c7.7,0,15.5-0.4,23.2,0.1s16.5,0.2,24.7,0.4c1,0.2,2,0.4,3,0.4
	c0.5-0.1,0.6,0.2,0.6,0.6v3.1c0,0.9-1,0.2-1.3,0.8c2.7,0.3,2.7,0.3,2.7,3.1s-0.1,8.3,0,12.4c0,1.2-0.2,2-1.6,1.8s-1.4,0.3-1.3,1.3
	c0.1,0.8,0.1,1.5,0,2.3c-0.1,1.6,0.2,2.7,2.1,2.5s1.3,2.5,0.6,2.9s-0.8,2.4-0.9,3.5c-0.1,0.7-0.1,1.5,0,2.2c0.1,0.7-0.5,1.8,0.9,1.8
	c0.1,0.3,0.2,0.6,0.2,0.9c0,3.7-0.1,7.5-0.1,11.2c-0.7,0.5-1.7,0.8-2.6,0.6c-3.4,0-6.9-0.1-10.4,0.1c3.5,0.2,7,0.2,10.4,0.2
	c0.9-0.2,1.8,0.1,2.6,0.6c0,2.8,0,5.7,0.1,8.5c0.1,0.8-0.4,1.6-1.2,1.8c-7.2,3.9-14.9,6.7-22.9,8.3c-8.2,1.6-16.6,2.3-25,2
	c-10.7-0.3-21.2-1.6-31.2-5.9l-4.2-1.9c0.3-1.2,1.4-0.8,2.1-0.8h63.9c2.7,0,3.6-1.3,2.8-4c-0.2-0.5-0.6-0.9-1.2-0.9h-74.4
	C157.9,112.3,157.1,112.1,156.5,111.6z"/>
<path class="st0" d="M38.3,92.3c0,10.1,0,20.3,0.1,30.4c0,0.9-0.3,1.2-1.2,1.2H4.4c-0.9,0-1.1-0.3-1.1-1.2V94.1
	c0-0.9,0.2-1.2,1.1-1.1h6.8c0.6-0.6,1.4-0.4,2.2-0.4h14.8c0.8,0.1,1.6,0,2.3-0.3l0.6-0.3h0.6c1.6-0.1,3.3,0,4.9,0h0.9L38.3,92.3z"/>
<path class="st0" d="M3.4,80.1c2.3,0.3,4.6,1.3,6.7-1c0.5-0.5,0.8-1.3,0.7-2c0.2-1.4-0.4-2.8,0.4-4.2c0.4,0.6,0.5,1.4,0.5,2.1v1
	c0,1.1-0.1,2.3,0,3.4s1.6,0.8,2.5,0.8h16.6c2.3,0.1,4.7-0.2,7,0.2c0.2,0.1,0.4,0.2,0.5,0.4v7.4c-2.4,0.9-5.1,0.9-7.5,0.1H13.2
	c-1.8,0-2.2-0.5-2.1-2.2s-0.2-2.9-0.2-4.4s-0.2-1-1-1H3.3L3.4,80.1z"/>
<path class="st0" d="M165.1,117.4c-2.1-0.8-4-2-5.7-3.4c0.4-1,1.3-0.8,2-0.8h26.4c0.9-0.1,1.7,0.1,2.4,0.7c0.6,1,0.7,2.3,0.1,3.4
	l-0.6,0.2h-8.6C175.8,117.4,170.4,117.6,165.1,117.4z"/>
<path class="st0" d="M5.4,89.8c0.4,2.5,0.2,2.8-1.4,2.4s-0.4-1.6-0.7-2.4l0.5-0.4C4.4,89.2,5,89.4,5.4,89.8z"/>
<path class="st0" d="M181.2,113.7v-2.1h8.7c0.7,0.4,0.7,1,0.6,1.7c0,0.1,0,0.3-0.1,0.4l-0.3,0.3c-1.7-0.7-3.4-0.2-5.1-0.3H181.2z"/>
<path class="st0" d="M191.9,10.5h11.8C202.9,11.1,194.6,11.3,191.9,10.5z"/>
</svg>
