<?xml version="1.0" encoding="utf-8"?>
<!-- Generator: Adobe Illustrator 27.0.1, SVG Export Plug-In . SVG Version: 6.00 Build 0)  -->
<svg version="1.1" xmlns="http://www.w3.org/2000/svg" xmlns:xlink="http://www.w3.org/1999/xlink" x="0px" y="0px"
	 viewBox="0 0 53 53" style="enable-background:new 0 0 53 53;" xml:space="preserve">
<g id="Layer_1">
</g>
<g id="Layer_2">
	<g>
		<path d="M19.8,27.1h-5.1v5.6h5v0c0.5,0,0.9-0.1,1.3-0.1c0.4-0.1,0.8-0.2,1.1-0.4s0.5-0.4,0.8-0.8c0.2-0.4,0.3-0.8,0.3-1.3
			c0-1-0.3-1.7-0.9-2.2C21.7,27.3,20.9,27.1,19.8,27.1z" fill="white"/>
		<path d="M21.6,23.5c0.5-0.4,0.8-1,0.8-1.8c0-0.4-0.1-0.9-0.2-1.2c-0.2-0.3-0.4-0.5-0.7-0.7c-0.3-0.1-0.6-0.3-1-0.4
			c-0.4-0.1-0.8-0.1-1.2-0.1h-4.5v4.7c0,0,4.8,0,4.8,0C20.4,24.1,21.1,23.9,21.6,23.5z" fill="white"/>
		<path d="M37,24.8c-0.6,0-1.1,0.1-1.6,0.4c-0.4,0.2-0.7,0.5-1,0.8c-0.3,0.3-0.4,0.6-0.5,1c-0.1,0.4-0.1,0.6-0.1,0.9h6.3
			c-0.1-1.1-0.5-1.8-1-2.3C38.7,25,37.9,24.8,37,24.8z" fill="white"/>
		<path d="M42,0H11C4.9,0,0,4.9,0,11v31c0,6.1,4.9,11,11,11h31c6.1,0,11-4.9,11-11V11C53,4.9,48.1,0,42,0z M33,18h7.9v1.9H33V18z
			 M27.4,32.8c-0.4,0.7-1,1.4-1.7,1.8c-0.7,0.4-1.6,0.8-2.5,1c-0.9,0.2-1.9,0.4-2.8,0.4L10,36V16h10.2c1,0,1.9,0.1,2.8,0.3
			c0.9,0.1,1.6,0.4,2.2,0.8c0.6,0.4,1.1,0.9,1.4,1.5c0.3,0.7,0.5,1.5,0.5,2.3c0,1-0.2,1.9-0.8,2.5c-0.5,0.7-1.2,1.2-2.2,1.7
			c1.3,0.4,2.3,1,2.9,1.9c0.6,0.9,1,2,1,3.2C28,31.2,27.8,32.1,27.4,32.8z M44,30.3H33.7c0,1.2,0.4,2.3,1,2.8
			c0.6,0.6,1.4,0.9,2.5,0.9c0.8,0,1.5-0.2,2-0.6c0.6-0.4,0.9-0.9,1.1-1.3h3.5c-0.6,1.7-1.4,3-2.5,3.7c-1.1,0.7-2.5,1.1-4.1,1.1
			c-1.1,0-2.1-0.2-3-0.6c-0.9-0.4-1.6-0.9-2.3-1.6c-0.6-0.6-1.1-1.4-1.4-2.4c-0.3-0.9-0.5-1.9-0.5-3.1c0-1.1,0.1-2.1,0.5-3
			c0.4-0.9,0.8-1.7,1.5-2.4c0.6-0.6,1.4-1.2,2.3-1.6c0.9-0.4,1.8-0.6,3-0.6c1.2,0,2.3,0.2,3.2,0.7c0.9,0.5,1.6,1.1,2.2,1.9
			c0.6,0.8,1,1.7,1.3,2.7C44,28.1,44,29.1,44,30.3z" fill="white"/>
	</g>
</g>
</svg>
