<svg width="54" height="53" viewBox="0 0 54 53" fill="none" xmlns="http://www.w3.org/2000/svg">
<g clip-path="url(#clip0_101_21)">
<path d="M0.764893 26.3829C0.764893 37.1861 7.26117 46.467 16.5571 50.5474C16.4829 48.7052 16.5439 46.4936 17.0163 44.4891C17.5235 42.3474 20.411 30.1131 20.411 30.1131C20.411 30.1131 19.5682 28.4286 19.5682 25.9389C19.5682 22.0292 21.8342 19.1092 24.6563 19.1092C27.0561 19.1092 28.2155 20.9116 28.2155 23.07C28.2155 25.4824 26.6768 29.0908 25.8856 32.4329C25.2246 35.2315 27.2888 37.5142 30.0497 37.5142C35.0483 37.5142 38.415 31.094 38.415 23.4872C38.415 17.7049 34.5205 13.377 27.437 13.377C19.434 13.377 14.4483 19.3452 14.4483 26.0117C14.4483 28.3103 15.126 29.9311 16.1875 31.1864C16.6756 31.7629 16.7434 31.9947 16.5668 32.6568C16.4402 33.1422 16.1496 34.3108 16.0292 34.774C15.8536 35.4422 15.3122 35.6811 14.7082 35.4344C11.0221 33.9295 9.3054 29.8928 9.3054 25.355C9.3054 17.8605 15.6261 8.874 28.161 8.874C38.2338 8.874 44.8634 16.163 44.8634 23.9872C44.8634 34.3368 39.1096 42.0687 30.628 42.0687C27.7797 42.0687 25.1005 40.5291 24.1826 38.7802C24.1826 38.7802 22.651 44.8589 22.3266 46.0327C21.7672 48.0668 20.6723 50.0999 19.6712 51.6845C22.0988 52.4023 24.617 52.7667 27.1484 52.7664C41.7173 52.7664 53.5301 40.9543 53.5301 26.3829C53.5301 11.8121 41.7173 0 27.1484 0C12.5781 0 0.764893 11.8121 0.764893 26.3829Z" fill="white"/>
</g>
<defs>
<clipPath id="clip0_101_21">
<rect width="52.765" height="52.765" fill="white" transform="translate(0.764893)"/>
</clipPath>
</defs>
</svg>
