<?xml version="1.0" encoding="utf-8"?>
<svg version="1.2" baseProfile="tiny" id="Layer_1" xmlns="http://www.w3.org/2000/svg" xmlns:xlink="http://www.w3.org/1999/xlink"
	 x="0px" y="0px" viewBox="0 0 53 53" overflow="visible" xml:space="preserve">
<linearGradient id="SVGID_1_" gradientUnits="userSpaceOnUse" x1="26.5" y1="0" x2="26.5" y2="52.3736">
	<stop  offset="0" style="stop-color:#000000"/>
	<stop  offset="1" style="stop-color:#000000"/>
</linearGradient>
<path  d="M26.5,0C11.9,0,0.1,11.8,0.1,26.4c0,14.6,11.8,26.4,26.4,26.4S52.9,41,52.9,26.4
	C52.9,11.8,41.1,0,26.5,0z M38.7,17.9c-0.4,4.2-2.1,14.3-3,19c-0.4,2-1.1,2.6-1.8,2.7c-1.5,0.1-2.7-1-4.2-2c-2.3-1.5-3.6-2.5-5.9-4
	C21.3,32,23,31,24.4,29.5c0.4-0.4,7.1-6.5,7.3-7.1c0-0.1,0-0.3-0.1-0.5c-0.2-0.1-0.4-0.1-0.5-0.1c-0.2,0.1-3.9,2.5-11.1,7.4
	c-1.1,0.7-2,1.1-2.9,1.1c-0.9,0-2.8-0.5-4.1-1c-1.7-0.5-3-0.8-2.9-1.7c0.1-0.5,0.7-1,2-1.5c7.7-3.4,12.8-5.6,15.4-6.6
	c7.3-3,8.8-3.6,9.8-3.6c0.2,0,0.7,0.1,1,0.3s0.3,0.5,0.4,0.7C38.7,17.1,38.8,17.6,38.7,17.9z" fill="white"/>
</svg>
