<svg width="54" height="53" viewBox="0 0 54 53"  xmlns="http://www.w3.org/2000/svg">
<path d="M37.8378 19.3403C41.0952 21.6771 45.0856 23.052 49.3955 23.052V14.729C48.5799 14.7291 47.7663 14.6438 46.9683 14.4741V21.0255C42.6588 21.0255 38.6688 19.6506 35.4106 17.314V34.299C35.4106 42.7957 28.5471 49.6832 20.081 49.6832C16.9222 49.6832 13.9861 48.7248 11.5471 47.0811C14.3308 49.9376 18.2129 51.7095 22.5077 51.7095C30.9743 51.7095 37.8381 44.822 37.8381 36.325V19.3403H37.8378ZM40.832 10.9433C39.1673 9.11817 38.0743 6.75947 37.8378 4.15182V3.0813H35.5377C36.1166 6.39562 38.0914 9.22717 40.832 10.9433ZM16.9019 40.561C15.9718 39.3371 15.4692 37.84 15.4714 36.3006C15.4714 32.4145 18.6108 29.2636 22.4838 29.2636C23.2056 29.2634 23.9231 29.3744 24.611 29.5934V21.0843C23.8071 20.9737 22.9958 20.9268 22.1848 20.944V27.5671C21.4964 27.348 20.7786 27.2368 20.0566 27.2375C16.1836 27.2375 13.0444 30.388 13.0444 34.2746C13.0444 37.0228 14.6135 39.402 16.9019 40.561Z" fill="white"/>
<path d="M35.4105 17.3141C38.6688 19.6507 42.6587 21.0256 46.9683 21.0256V14.4742C44.5627 13.9599 42.4331 12.6984 40.832 10.9436C38.0912 9.22724 36.1166 6.39569 35.5376 3.08154H29.4958V36.3248C29.4822 40.2003 26.3482 43.3384 22.4834 43.3384C20.206 43.3384 18.1827 42.2489 16.9013 40.5612C14.6132 39.4022 13.044 37.0228 13.044 34.2751C13.044 30.3888 16.1832 27.2379 20.0562 27.2379C20.7983 27.2379 21.5135 27.3539 22.1844 27.5675V20.9444C13.8671 21.1169 7.17798 27.9371 7.17798 36.325C7.17798 40.5122 8.84373 44.3081 11.5473 47.0816C13.9862 48.7251 16.9223 49.6836 20.0812 49.6836C28.5474 49.6836 35.4107 42.7958 35.4107 34.2992V17.3141H35.4105Z" fill="white"/>
<path d="M46.9683 14.4742V12.7027C44.7991 12.706 42.6724 12.0964 40.832 10.9434C42.4612 12.7335 44.6066 13.9678 46.9683 14.4742ZM35.5376 3.08156C35.4824 2.76482 35.44 2.44599 35.4106 2.12595V1.05542H27.0685V34.2991C27.0552 38.174 23.9214 41.3121 20.0563 41.3121C18.9215 41.3121 17.8502 41.0418 16.9014 40.5614C18.1828 42.2489 20.206 43.3382 22.4835 43.3382C26.3479 43.3382 29.4824 40.2005 29.4959 36.325V3.08156H35.5376ZM22.1848 20.9445V19.0586C21.4878 18.963 20.785 18.915 20.0814 18.9154C11.6145 18.9152 4.75098 25.803 4.75098 34.2991C4.75098 39.6256 7.44845 44.3199 11.5475 47.0812C8.84393 44.3079 7.17818 40.5119 7.17818 36.3249C7.17818 27.9371 13.8672 21.1169 22.1848 20.9445Z" fill="white"/>
</svg>
