<?xml version="1.0" encoding="utf-8"?>
<svg version="1.2" baseProfile="tiny" id="Layer_1" xmlns="http://www.w3.org/2000/svg" xmlns:xlink="http://www.w3.org/1999/xlink"
	 x="0px" y="0px" viewBox="0 0 54 53" overflow="visible" xml:space="preserve">
<path d="M52.5,14c-0.3-1.1-0.9-2.1-1.7-2.9C50,10.3,49,9.7,47.9,9.4c-4.1-1.1-20.6-1.1-20.6-1.1s-16.5,0-20.6,1.1
	c-1.1,0.3-2.1,0.9-2.9,1.7C2.8,12,2.2,13,1.9,14c-0.8,4.1-1.1,8.2-1.1,12.3s0.3,8.3,1.1,12.3c0.3,1.1,0.9,2.1,1.7,2.9
	c0.8,0.8,1.8,1.4,2.9,1.7c4.1,1.1,20.6,1.1,20.6,1.1s16.5,0,20.6-1.1c1.1-0.3,2.1-0.9,2.9-1.7c0.8-0.8,1.4-1.8,1.7-2.9
	c0.8-4.1,1.1-8.2,1.1-12.3C53.6,22.2,53.2,18.1,52.5,14z M21.9,34.1V18.7l13.7,7.7L21.9,34.1z" fill="white"/>
</svg>
